<svg t="1615906334993" class="icon" viewBox="0 0 1024 1024" version="1.1" xmlns="http://www.w3.org/2000/svg" p-id="4915" width="128" height="128"><path d="M465.5 507L150.1 373.5l-1-0.4c-11.3-4.3-23.9-2.7-33.8 4.1-9.9 6.8-15.8 18.1-15.8 30.2V758c0 14.9 9.2 28.4 22.9 34l315.4 133.5 1 0.4c4.2 1.6 8.6 2.4 13 2.4 7.3 0 14.6-2.2 20.8-6.5 9.9-6.8 15.8-18.1 15.8-30.2V541c0-14.9-9.2-28.4-22.9-34z m-35.7 351.5L158 743.5v-303l271.7 115.1v302.9zM910.6 733.2L607.5 524.7c-11.2-7.7-25.7-8.6-37.8-2.2-12.1 6.4-19.6 18.8-19.6 32.4v336.8c0 12 5.9 23.3 15.8 30.2 6.2 4.3 13.5 6.5 20.8 6.5 4.4 0 8.8-0.8 13-2.4l304.4-128.9c12.3-5.2 20.8-16.7 22.2-30 1.4-13.4-4.6-26.3-15.7-33.9zM608.7 858.5V596.7l235.7 162-235.7 99.8zM896.8 311.7c0.8-14.4-7-28-19.9-34.6L535.7 102.4c-10.5-5.4-23-5.4-33.4 0L161.1 277.2c-12.8 6.6-20.7 20.1-19.9 34.6 0.8 14.4 10 27.1 23.5 32.3L505.9 475c4.2 1.6 8.7 2.4 13.1 2.4s8.9-0.8 13.1-2.4l341.2-131c13.5-5.2 22.7-17.8 23.5-32.3zM519 417.2L231.7 306.9 519 159.7l287.3 147.2L519 417.2z" p-id="4916"></path></svg>
